<svg xmlns="http://www.w3.org/2000/svg" viewBox="0 0 700 700">
	<path d="M346.5.6C283 4.7 230.9 18 181.8 42.6 120.1 73.5 68.3 124.3 38.6 182.8c-17.9 35.3-26.9 66.7-29.7 102.7-1.5 19.6-1.1 20.9 3 10 22.7-60.3 81.6-118.9 151.9-151 83.2-38 174.3-37.2 253.7 2.2 36.7 18.2 62.4 42.3 79.3 74.3 24.4 46.2 27.3 107 8.1 172.8-4 13.6-10.4 30.9-16.9 45.6l-5.3 11.9 2.4 1.8c1.3 1 5.3 3.4 8.9 5.3 29.5 15.4 83.9 17.9 123.5 5.6 8.4-2.7 10.8-5 22.3-21.8 26.4-38.7 41.7-77.9 47.9-122.2 2.5-18.5 2.3-52-.5-70.5-7.5-49-25.2-90.4-56.1-131-14.9-19.7-43.6-46.4-67.1-62.6-40.6-28-93.2-47.1-147.5-53.4-13.4-1.6-56.8-2.7-70-1.9z" />
	<path d="M254.3 206.1c-55.6 5-108.6 29.2-146.3 66.9-34.6 34.6-55.8 78.7-64.1 133-2.6 17.5-3.6 51.3-2 67 4.3 41.7 21.5 82.5 49.2 116.7 8.5 10.5 29.5 31.4 39.9 39.7 43.6 34.6 95.1 57.2 154.5 67.8 12.1 2.1 15.6 2.3 52 2.3 35.6 0 40.2-.2 52.5-2.3 32.9-5.5 67.9-15.3 94.5-26.7 29.4-12.5 61.6-31.1 85.7-49.3 15.9-12 20.1-15.6 17.3-14.7-1.1.4-9.9 3.3-19.5 6.5-45.3 15.2-81.2 21.8-123.2 22.7-33.6.7-50.7-1-77.3-7.8C274 604.1 210.3 524.6 203 422.5c-2.2-31 3.6-59.8 17.6-87.6 15.3-30.6 39.5-57.3 69.9-77.2 22.4-14.6 43.1-23.1 70.9-29.2 2.8-.6 2.8-.6.9-2-1.2-.8-5.7-3.3-10.2-5.5-25.3-12.6-61.5-18.1-97.8-14.9z" />
</svg>
