<svg xmlns="http://www.w3.org/2000/svg" viewBox="0 0 1200 250">
	<path d="M1028.56 17.8905C1090.16 -7.82268 1154.18 0.209861 1200 5.43623L1200 250L0 250C221.883 250 191 214.5 277 188.5C328.607 172.898 370.767 191.994 440.442 174.8C510.117 157.606 512.631 128.424 613.302 119.882C713.972 111.339 766.719 161.407 848.443 149.839C930.167 138.271 961.009 46.0921 1028.56 17.8905Z" fill="#086787" />
	<path d="M1029 125C1067.43 115.611 1157.5 89.5 1200 89.5V250L423.5 250C423.5 250 460 178 603.5 178C736.5 178 748.5 139.947 813.5 125C862.5 113.733 963.5 141 1029 125Z" fill="#0a4a62" />
	<path d="M1093 138.5C1122.5 132.311 1152 112.5 1200 115.5V250L331.5 250C331.5 250 336.173 239.624 398 213.5C433.5 198.5 470.884 181.606 606.5 192.5C787 207 828 140.045 869.5 128.5C972.5 99.8458 1021.5 153.5 1093 138.5Z" fill="#068ab0" />
	<path d="M1013.5 188C1087.9 196 1179.67 164.833 1200 145.5V250L757 250C791.5 233.5 939.1 180 1013.5 188Z" fill="#090b10" />
</svg>
