<svg xmlns="http://www.w3.org/2000/svg" viewBox="0 0 256 256">
	<path d="M136.496 0C45.2367 0 1.83843 64.3704 3.02362 111.778C17.2458 66.7407 86.678 20.5911 153.496 54C197.496 76 195.496 126 176.496 165C187.874 174.481 215.564 174.426 228.996 168.5C284.996 99 234.496 0 136.496 0Z" fill="url(#paint)" />

	<path d="M74.1347 153.317C77.272 206.65 124.736 255.706 215.996 221.336C192.292 241.484 159.468 256.428 122.727 256.428C70.5791 256.428 14.8755 219.687 14.8755 165.169C14.8754 78.6504 101.394 62.0578 133.394 83.3911C103.764 88.1319 71.9735 116.576 74.1347 153.317Z" fill="url(#paint)" />

	<defs>
		<linearGradient id="paint">
			<stop stop-color="#f9574c" />
			<stop offset="1" stop-color="#f53f76" />
		</linearGradient>
	</defs>
</svg>
